<svg id="图层_1" data-name="图层 1" xmlns="http://www.w3.org/2000/svg" viewBox="0 0 24 24"><title>我的-账户信息</title><path d="M12.79,3.2H6a.29.29,0,0,0-.3.3v17a.29.29,0,0,0,.3.3H18a.29.29,0,0,0,.3-.3V8.2H14.49a1.7,1.7,0,0,1-1.7-1.7Zm1.4,0V6.5a.29.29,0,0,0,.3.3h3.32L14.3,3.29A.26.26,0,0,0,14.19,3.22ZM6,1.8h8.09a1.7,1.7,0,0,1,1.2.5L19.2,6.21a1.7,1.7,0,0,1,.5,1.2V20.5A1.7,1.7,0,0,1,18,22.2H6a1.7,1.7,0,0,1-1.7-1.7V3.5A1.7,1.7,0,0,1,6,1.8Zm1.5,9.9a.7.7,0,0,1,0-1.4h6a.7.7,0,0,1,0,1.4Zm1,3a.7.7,0,0,1,0-1.4h6a.7.7,0,0,1,0,1.4Zm2,3a.7.7,0,0,1,0-1.4h6a.7.7,0,0,1,0,1.4Z" style="fill-opacity:0.87"/></svg>
