<?xml version="1.0" encoding="UTF-8"?>
<svg width="24px" height="24px" viewBox="0 0 24 24" version="1.1" xmlns="http://www.w3.org/2000/svg" xmlns:xlink="http://www.w3.org/1999/xlink">
    <!-- Generator: Sketch 55.2 (78181) - https://sketchapp.com -->
    <title>原子/图标/我的/已购漫画选中态</title>
    <desc>Created with Sketch.</desc>
    <g id="原子/图标/我的/已购漫画选中态" stroke="none" stroke-width="1" fill="none" fill-rule="evenodd">
        <rect id="矩形" x="0" y="0" width="24" height="24"></rect>
        <g id="我的限免卡">
            <g id="图标"></g>
            <g id="原子/图标/支付/货币/限免卡">
                <rect id="矩形" x="0" y="0" width="24" height="24"></rect>
            </g>
        </g>
        <g id="图标" fill-rule="nonzero" stroke="#32AAFF" stroke-linecap="round" stroke-linejoin="round" stroke-width="1.4">
            <g id="原子/图标/我的/已购漫画">
                <path d="M6,2 L14.5857864,2 C14.8510029,2 15.1053568,2.10535684 15.2928932,2.29289322 L19.7071068,6.70710678 C19.8946432,6.89464316 20,7.14899707 20,7.41421356 L20,20 C20,21.1045695 19.1045695,22 18,22 L6,22 C4.8954305,22 4,21.1045695 4,20 L4,4 C4,2.8954305 4.8954305,2 6,2 Z" id="漫画"></path>
                <path d="M15.002565,2.86599002 L15.0074047,4.5 L15.0118563,6.00296186 C15.0134886,6.55408787 15.4607234,7 16.0118519,7 L19.1538738,7" id="折耳"></path>
                <polyline id="Path" points="8.5 13.5 11 16 16 11"></polyline>
            </g>
        </g>
    </g>
</svg>