<?xml version="1.0" encoding="UTF-8"?>
<svg width="24px" height="24px" viewBox="0 0 24 24" version="1.1" xmlns="http://www.w3.org/2000/svg" xmlns:xlink="http://www.w3.org/1999/xlink">
    <!-- Generator: Sketch 55.2 (78181) - https://sketchapp.com -->
    <title>原子/图标/我的/已购漫画</title>
    <desc>Created with Sketch.</desc>
    <g id="原子/图标/我的/已购漫画" stroke="none" stroke-width="1" fill="none" fill-rule="evenodd">
        <rect id="矩形" x="0" y="0" width="24" height="24"></rect>
        <g id="我的限免卡">
            <g id="图标"></g>
            <g id="原子/图标/支付/货币/限免卡">
                <rect id="矩形" x="0" y="0" width="24" height="24"></rect>
            </g>
        </g>
        <g id="图标" fill-rule="nonzero">
            <g id="原子/图标/我的/已购漫画">
                <path d="M14.3223576,2.7 L6,2.7 C5.28202983,2.7 4.7,3.28202983 4.7,4 L4.7,20 C4.7,20.7179702 5.28202983,21.3 6,21.3 L18,21.3 C18.7179702,21.3 19.3,20.7179702 19.3,20 L19.3,7.68472522 C19.25287,7.69473402 19.2039869,7.7 19.1538738,7.7 L16.0118519,7.7 C15.0749336,7.7 14.3146344,6.94194937 14.3118593,6.00503516 L14.3025618,2.86806332 C14.3023912,2.8101505 14.3092581,2.75385945 14.3223576,2.7 Z M15.7050234,3.69497286 L15.7118532,6.00088856 C15.7123429,6.16622636 15.8465133,6.3 16.0118519,6.3 C17.0297942,6.3 17.7958604,6.3 18.3100505,6.3 L15.7050234,3.69497286 Z M6,1.3 L14.5857864,1.3 C15.0366545,1.3 15.4690561,1.47910663 15.787868,1.79791847 L20.2020815,6.21213203 C20.5208934,6.53094388 20.7,6.96334553 20.7,7.41421356 L20.7,20 C20.7,21.4911688 19.4911688,22.7 18,22.7 L6,22.7 C4.50883118,22.7 3.3,21.4911688 3.3,20 L3.3,4 C3.3,2.50883118 4.50883118,1.3 6,1.3 Z" id="形状结合" fill="#000000"></path>
                <polyline id="Path" stroke="#000000" stroke-width="1.4" stroke-linecap="round" stroke-linejoin="round" points="8.5 13.5 11 16 16 11"></polyline>
            </g>
        </g>
    </g>
</svg>